<svg xmlns="http://www.w3.org/2000/svg" viewBox="0 0 195.629 43.457" height="164.247" width="739.385"><path d="M0 0h43.457v43.457H0z" fill="#fff"/><path d="M30.065 36.381c1.861 0 2.746 1.176 4.707 1.176s2.847-1.176 4.708-1.176c1.613 0 2.493.883 3.978 1.117V.001H0v3.62h18.144v2.297H0v37.54h43.457v-3.658c-1.484-.235-2.365-1.118-3.978-1.118-1.861 0-2.748 1.177-4.708 1.177s-2.847-1.177-4.707-1.177-2.747 1.177-4.708 1.177v-2.3c1.961 0 2.847-1.176 4.708-1.176zm-14.76-10.192c-.126-.372-.102-.86-.246-1.228-.104-.275-.388-.498-.629-.785-.118-.141-.456-.775-.618-.905-.13-.053-.298-.095-.407-.095s-.287.063-.401.179c-.288.273-.65.746-1.104.927-.16.064-1.3.844-1.667 1.052-.126.071-.246.266-.443.327-.567.156-.743.468-1.136.566-.048.018-.652-.018-.763-.018s-.545.083-.655.083-.293-.074-.5-.06c-.11.011-.506.211-.837.235l-.558-.089c-.139-.137-.348-.241-.438-.357-.087-.108-.138-.322-.248-.486-.274-.421-.783-.78-1.155-.887-.2-.053-.398-.271-.579-.413-.213-.164-.622-.444-.698-.653l-.511-1.606c-.025-.041-.028-.755-.028-.864 0-.496-.352-.364-.352-.792 0-.109.046-.154.046-.991.091-.18.394-.88.394-1.138 0-.108-.222-1.469-.222-1.579s.097-.987.234-1.453c.077-.276.13-.641.357-.888.185-.208.553-.471.794-.609.292-.109.917-.101.917-.101.11 0 1.929.65 1.96 1.232.007.181-.188.439-.299.772-.054.166-.062.518-.174.719-.282.378-1.249 1.136-1.452 1.306-.167.609-.315.724-.315 1.239 0 .22.007.49.157.759.087.153.209.91.46 1.135.231.204.593.224.823.405.165.126.343.347.47.473.059.06.641.738.751.738l2.068.041 1.863.298c.236.025.879-.255 1.276-.248l.708-.045c.207-.011.79-.593 1.048-.802.373-.302 1.139-1.212 1.221-1.292v-1.797c0-.264-.212-.473-.293-.616-.112-.192-.16-.479-.248-.688-.044-.099-.247-.352-.26-.387-.466-.257-1.016-.431-1.416-.672-.198-.121-.881-.882-.901-.991-.035-.221.23-.724.214-.769l-.054-.598c.061-.43 1.098-1.915 1.42-1.944.216.004.747.062.857.062s.505-.132.616-.132c.483 0 .376.648.426.808.055.175.417.903.498 1.094.049.123.084.311.134.485.032.128.34.874.429 1.244.055.504.21 1.215.536 1.653l.15 1.765c0 .109-.132 1.099-.132 1.207 0 .571.404 2.148.534 2.382.115.204.381.349.587.57.021.05.458.568.666.678.199.103 1.114.701 1.284.861.091.404.043.944-.052 1.242-.235.143-.589.61-.667.796-.093.224-.556.744-.8.804l-.669.083c-.599 0-1.734-.55-1.97-1.241zm9.574 7.817c-.182 0-.629-.565-.839-.86-.045-.065-.548-.947-.918-1.097-.669-.057-.581-.29-1.38-.519-.501-.086-.472-.201-.867-.218-.255-.007-.501.293-.945.425-.254.076-1.077.869-1.246.888-.054 0-.106-.042-.146-.064l-.663-1.339c0-.106.182-.292.286-.414.304-.1.998-.385 1.012-.426.673-.371 1.166-1.081 1.336-1.819.122-.536.425-.953.458-1.455.116-1.635.014-2.004.042-2.131.018-.189-.04-1.232-.04-1.232 0-.106-.086-.437-.086-.545 0-.354.246-.701.284-.82.025-.081.155-1.559.155-1.559 0-.107.089-1.374.089-1.374-.079-.807.451-1.515.513-1.8.077-.375-.014-1.047-.014-1.156s.032-.45.032-.558.204-.303.249-.437c.04-.124.059-.295.073-.467l.075-.778c0-.464.443-2.639.443-2.745s.12-.475.132-.689l.043-.881c0-.109-.043-.493-.086-.925.041-.457-.119-.937-.124-1.045 0-.127.049-.405-.137-.405-.113 0-1.226.472-1.312.403-.403-.323-.381-.689-.381-.689.215-.277 1.437-.888 1.616-.997a4.89 4.89 0 0 1 .966-.262c.245.018 1.33.485 1.705.657.652.297 1.036.518 1.681.41.109-.018 1.971-.732 2.655-.799.324-.035.856.176 1.088.241.127.032 1.404.101 1.404.101.111 0 1.103.42 1.294.503.121.047.917.163 1.068.289.567.45 1.076 1.088 1.292 1.609.153.541.174 2.618.183 2.662a16.86 16.86 0 0 1 .079 1.236c0 .14-.122.77-.198.871l-1.014 3.032c-.139.278-.781 1.308-.977 1.596-.205.187-.953 1.175-.986 1.215-.097.255-.223.58-.427.803-.098.115-.936.564-1.158.653-.114.041-.404-.106-.578.131-.011.081-.062.534-.118.646-.076.152-.884.644-1.319.828 0 0-1.004-.182-1.131-.145-.139.044-.31.162-.476.198v.147l1.562.462c.11 0 1.63.241 1.63.241.224.088.477.245.758.416.073.045.749.156 1.011.284l1.575.257c.21.076.448.29.675.316.438.054.909.025 1.329.156.288.093 1.735 1.004 1.847 1.032.308.107 1.627.673 1.794.727.11.032.739.383.882.421.802.207 1.049.182 1.505.131.333.131.26.413.199.551-.105.107-.464.276-.732.312l-.289.037-.854-.148c-.147-.049-.45-.298-.743-.371-.258.007-.386-.051-.625-.04-.16.036-.686.304-.829.656-.084.54.047 1.07.047 1.263 0 .106-.329.369-.428.499-.112.308-.539 1.34-.757 1.683-.169.192-.853-.103-.848-.193.076-.409.021-.853.144-1.038.351-.525.42-1.187.405-1.438-.04-.036-1.138-1.33-1.276-1.407-.288-.159-1.772-1.256-2.451-1.514-.079-.028-.845-.094-1.304-.24-.231-.083-1.193-.716-1.233-.745-.428-.112-1.385-.664-1.628-.727l-1.593-.366c-.38-.053-1.056-.395-1.414-.418-.929-.06-1.085-.114-1.192-.044-.312.21-.38.373-.42.702-.129 1.021.014 1.842.014 1.95v1.466c0 .106-.182 1.452-.213 1.488l-.056.915c0 .216.642 1.446.717 1.55.208.111.58.603.766.802.118.367.085 1.086.085 1.086-.215.253-.636.39-.747.39zm.417-11.587c.11 0 .436-.043.631-.103s1.015-.626 1.07-.694c.25-.312.845-1.044 1.075-1.491l.262-.861c.046-.245.539-1.097.688-1.456.181-.429.581-1.04.603-1.159l.304-1.354c.07-.039.173-.086.173-.191l.067-.733c.021-.25.025-.429.121-.68 0-.05.651-1.051.651-1.292 0-.109-.061-.602-.061-.602s.502-1.785.617-2.178c.032-.101-.06-.786-.193-1.145-.165-.441-.535-.253-.743-.373-.127-.068-.427-.176-.672-.144l-.831.216-1.244.258c-.952.428-1.165.545-1.207.79-.036.205-.032.423-.07.589-.044.178-.204.37-.204.477l-.032 1.078c-.064.376-.059.635-.146.942l-.311 1.249c-.032.177-.117.863-.117.97s0 .589-.102.875c-.071.188-.341.694-.353.73-.067.169-.162 1.146-.162 1.254s-.196 1.405-.25 1.832c-.049.39.06 1.398.06 1.506s-.325 1.457-.317 1.729c.192.007.584-.041.694-.041z" fill="#af1c2e" fill-rule="evenodd"/><path d="M69.873 13.29c0 3.187-2.405 5.783-5.879 5.783s-5.879-2.596-5.879-5.783V5.369h3.245V13.5c0 1.394.993 2.52 2.634 2.52s2.634-1.126 2.634-2.52V5.369h3.245zm12.157 5.44l-5.707-8.131v8.131h-3.207V5.369h3.207l5.707 8.188V5.369h3.206V18.73zm6.546-13.361h3.245V18.73h-3.245zM100.2 15.562h.191l3.13-10.192h3.435l-4.466 13.36H98.1L93.634 5.369h3.435zm18.628-10.193v2.806h-6.814v2.405h6.261v2.806h-6.261v2.539h7.043v2.806h-10.288V5.369zm8.779 8.494h-2.539v4.867h-3.244V5.369h6.298c2.996 0 4.734 1.679 4.734 4.276 0 1.661-.84 3.054-2.099 3.684l2.481 5.402h-3.435zm-2.539-5.688v2.901h3.054c.916 0 1.527-.515 1.527-1.451s-.611-1.45-1.527-1.45zm18.667.305s-1.622-.496-3.359-.496c-1.603 0-2.081.439-2.081 1.03 0 .477.248.802 1.107 1.05l2.519.706c2.558.726 3.283 2.1 3.283 4.047 0 2.558-1.718 4.256-5.65 4.256-1.413 0-3.379-.325-4.6-.782l.649-2.806a13.09 13.09 0 0 0 3.894.611c1.813 0 2.462-.42 2.462-1.298 0-.687-.63-1.107-1.546-1.355l-2.405-.649c-2.099-.573-2.958-1.928-2.958-3.798 0-1.928 1.565-3.97 5.115-3.97 1.432 0 3.111.229 4.524.744zm4.14-3.111h3.245V18.73h-3.245zm6.586 0h5.439c4.009 0 6.891 2.672 6.891 6.623 0 4.161-2.882 6.738-6.91 6.738h-5.421zm5.421 10.555c2.214 0 3.684-1.546 3.684-3.932 0-2.233-1.47-3.817-3.684-3.817h-2.176v7.749zm11.05 2.806h-3.378l4.848-13.361h4.332l4.848 13.361h-3.379l-1.03-2.978h-5.211zm3.779-10.116h-.286l-1.508 4.39h3.302zm8.588-3.245h5.44c4.008 0 6.89 2.672 6.89 6.623 0 4.161-2.882 6.738-6.91 6.738h-5.421zm5.421 10.555c2.214 0 3.683-1.546 3.683-3.932 0-2.233-1.469-3.817-3.683-3.817h-2.176v7.749zM58.21 24.839h5.44c4.009 0 6.891 2.672 6.891 6.623 0 4.161-2.882 6.738-6.909 6.738H58.21zm5.421 10.555c2.214 0 3.684-1.546 3.684-3.932 0-2.233-1.47-3.817-3.684-3.817h-2.176v7.749zm18.972-10.555v2.806h-6.814v2.405h6.26v2.806h-6.26v2.539h7.042V38.2H72.544V24.839zM93.71 35.395h6.089V38.2h-9.334V24.839h3.245zm10.612 2.805h-3.379l4.848-13.361h4.333l4.848 13.361h-3.378l-1.031-2.977h-5.211zm3.779-10.116h-.286l-1.508 4.39h3.302zm19.238 5.249H124.8V38.2h-3.245V24.839h6.299c2.996 0 4.734 1.68 4.734 4.275 0 1.661-.84 3.054-2.1 3.684l2.481 5.401h-3.436zm-2.539-5.688v2.901h3.054c.916 0 1.527-.515 1.527-1.451s-.611-1.45-1.527-1.45zm10.65-2.806h3.245V38.2h-3.245zm12.845-.343c3.875 0 6.833 3.15 6.833 7.025s-2.959 7.024-6.833 7.024-6.833-3.149-6.833-7.024 2.958-7.025 6.833-7.025zm0 11.09c2.138 0 3.588-1.832 3.588-4.065s-1.451-4.066-3.588-4.066-3.588 1.832-3.588 4.066 1.45 4.065 3.588 4.065zm9.677-10.747h3.245v11.548c0 2.634-1.527 4.733-4.218 6.203l-1.584-2.615c1.775-.916 2.558-2.271 2.558-3.588zm8.34 13.361h-3.378l4.848-13.361h4.332l4.849 13.361h-3.379l-1.03-2.977h-5.211zm3.78-10.116h-.286l-1.508 4.39h3.302z"/></svg>